<svg id="Lager_1" data-name="Lager 1" xmlns="http://www.w3.org/2000/svg" viewBox="0 0 309.13 93.81"><defs><style>.cls-1{fill:#bba268;}.cls-2,.cls-3{fill:#1d1d1b;}.cls-3{stroke:#1d1d1b;stroke-miterlimit:10;stroke-width:0.5px;}</style></defs><title>PMKF_LOGO</title><path class="cls-1" d="M32.2,43.49V60.28H26.15V15.39H39.4a24.82,24.82,0,0,1,7.41,1A14.31,14.31,0,0,1,52,19.18a11.27,11.27,0,0,1,3.08,4.38,15.48,15.48,0,0,1,1,5.74A14.45,14.45,0,0,1,55,35a12.32,12.32,0,0,1-3.21,4.48,15,15,0,0,1-5.24,2.93,22.56,22.56,0,0,1-7.18,1.05Zm0-4.83h7.2A14,14,0,0,0,44,38a9.48,9.48,0,0,0,3.34-1.92,8,8,0,0,0,2-3,10.34,10.34,0,0,0,.68-3.79,8.63,8.63,0,0,0-2.64-6.71q-2.65-2.41-8-2.41H32.2Z"/><path class="cls-1" d="M114.78,45.63c.2.56.4,1.12.59,1.68q.28-.87.6-1.68c.21-.53.45-1.07.72-1.61l13.89-27.6a1.81,1.81,0,0,1,.77-.88,3.44,3.44,0,0,1,1.15-.15h4.1V60.28h-4.87v-33q0-.66,0-1.41c0-.5,0-1,.08-1.53L117.78,52.42a2.21,2.21,0,0,1-2,1.41H115a2.21,2.21,0,0,1-2-1.41L98.58,24.25c.06.55.1,1.08.13,1.6s0,1,0,1.44v33H93.88V15.39H98a3.44,3.44,0,0,1,1.15.15,1.81,1.81,0,0,1,.77.88l14.18,27.63A11.83,11.83,0,0,1,114.78,45.63Z"/><path class="cls-1" d="M184.28,35.06h2.28a4.94,4.94,0,0,0,1.9-.3,3.74,3.74,0,0,0,1.33-1l15-16.91a4.5,4.5,0,0,1,1.33-1.12,3.68,3.68,0,0,1,1.64-.32h5.17l-17.1,19.33c-.44.48-.86.88-1.24,1.22a5.74,5.74,0,0,1-1.24.81,4.45,4.45,0,0,1,1.54.85A12.41,12.41,0,0,1,196.21,39l17.86,21.27h-5.26a4.68,4.68,0,0,1-1-.09,3.44,3.44,0,0,1-.71-.25,2.39,2.39,0,0,1-.55-.41c-.17-.17-.33-.35-.5-.53L190.54,41.17a7.7,7.7,0,0,0-.64-.64,3.07,3.07,0,0,0-.69-.46,3.25,3.25,0,0,0-.91-.26,7.59,7.59,0,0,0-1.27-.08h-2.75V60.28h-6.05V15.39h6.05Z"/><path class="cls-1" d="M282.76,15.39v4.95H260.21V36h19.42V41H260.21v19.3H254.1V15.39Z"/><path class="cls-2" d="M1.05,90.81v2.91H0v-7.8H2.3a4.43,4.43,0,0,1,1.29.17,2.55,2.55,0,0,1,.91.49,1.91,1.91,0,0,1,.53.76,2.66,2.66,0,0,1,.18,1,2.54,2.54,0,0,1-.19,1,2,2,0,0,1-.56.77,2.51,2.51,0,0,1-.91.51,4,4,0,0,1-1.25.19Zm0-.84H2.3a2.45,2.45,0,0,0,.8-.12,1.59,1.59,0,0,0,.58-.34A1.3,1.3,0,0,0,4,89a1.76,1.76,0,0,0,.12-.66,1.49,1.49,0,0,0-.46-1.17,2,2,0,0,0-1.39-.41H1.05Z"/><path class="cls-2" d="M16.56,91.18c0,.09.07.19.11.29,0-.1.07-.2.11-.29s.09-.19.14-.28l2.64-4.8a.35.35,0,0,1,.15-.15.58.58,0,0,1,.21,0h.78v7.8h-.92v-6c0-.09,0-.18,0-.27l-2.67,4.88a.42.42,0,0,1-.38.24h-.16a.42.42,0,0,1-.38-.24l-2.73-4.9c0,.1,0,.19,0,.28a2.18,2.18,0,0,1,0,.25v5.73h-.92v-7.8h.77a.61.61,0,0,1,.22,0,.35.35,0,0,1,.15.15l2.69,4.8A2.44,2.44,0,0,1,16.56,91.18Z"/><path class="cls-2" d="M38,89.34h.4a.93.93,0,0,0,.32,0,.66.66,0,0,0,.24-.18l2.59-2.94a.92.92,0,0,1,.23-.19.62.62,0,0,1,.29-.06h.9l-3,3.36a2.08,2.08,0,0,1-.22.21.85.85,0,0,1-.21.14.93.93,0,0,1,.26.15A1.93,1.93,0,0,1,40,90l3.11,3.69H42l-.13,0-.09-.07-.09-.09L39,90.4l-.11-.11-.12-.08a.42.42,0,0,0-.16,0l-.22,0H38v3.57H36.9v-7.8H38Z"/><path class="cls-2" d="M56.66,93.72h-.81a.33.33,0,0,1-.23-.07.4.4,0,0,1-.13-.18l-.73-1.88h-3.5l-.73,1.88a.46.46,0,0,1-.13.18.35.35,0,0,1-.23.07h-.82l3.12-7.8h1.07Zm-5.11-2.89h2.91l-1.22-3.18a4.9,4.9,0,0,1-.23-.73c0,.15-.08.28-.12.41l-.11.33Z"/><path class="cls-2" d="M64.85,90.81v2.91h-1v-7.8h2.3a4.43,4.43,0,0,1,1.29.17,2.64,2.64,0,0,1,.91.49,2,2,0,0,1,.53.76,2.66,2.66,0,0,1,.18,1,2.54,2.54,0,0,1-.19,1,2,2,0,0,1-.56.77,2.51,2.51,0,0,1-.91.51,4,4,0,0,1-1.25.19Zm0-.84H66.1a2.45,2.45,0,0,0,.8-.12,1.59,1.59,0,0,0,.58-.34,1.3,1.3,0,0,0,.35-.51,1.76,1.76,0,0,0,.12-.66,1.49,1.49,0,0,0-.46-1.17,2,2,0,0,0-1.39-.41H64.85Z"/><path class="cls-2" d="M77.64,93.72H76.58v-7.8h1.06Z"/><path class="cls-2" d="M91.08,85.92v.89H88.56v6.91h-1V86.81H85v-.89Z"/><path class="cls-2" d="M103.94,93.72h-.82a.35.35,0,0,1-.23-.07.4.4,0,0,1-.13-.18L102,91.59h-3.5l-.73,1.88a.38.38,0,0,1-.13.18.35.35,0,0,1-.23.07h-.81l3.12-7.8h1.07Zm-5.11-2.89h2.91l-1.23-3.18a4.9,4.9,0,0,1-.23-.73c0,.15-.08.28-.12.41s-.07.23-.11.33Z"/><path class="cls-2" d="M112,92.84h3.38v.88H111v-7.8H112Z"/><path class="cls-2" d="M133.39,85.83a2.22,2.22,0,0,1,.79.14,2.31,2.31,0,0,1,.61.37,1.76,1.76,0,0,1,.41.53,1.74,1.74,0,0,1,.17.63l-.61.12h0a.33.33,0,0,1-.14,0,.24.24,0,0,1-.09-.14,1,1,0,0,0-.12-.29,1.18,1.18,0,0,0-.22-.28,1.27,1.27,0,0,0-.32-.21,1.15,1.15,0,0,0-.44-.08,1.3,1.3,0,0,0-.49.09,1.06,1.06,0,0,0-.61.61,1.12,1.12,0,0,0-.08.45,1.37,1.37,0,0,0,0,.36,1.78,1.78,0,0,0,.14.36,2.25,2.25,0,0,0,.24.36c.1.13.22.26.35.4l2.25,2.28a4.36,4.36,0,0,0,.33-.77,4.53,4.53,0,0,0,.16-.8.26.26,0,0,1,.07-.16.19.19,0,0,1,.15-.06h.6a4.79,4.79,0,0,1-.2,1.23,4.38,4.38,0,0,1-.55,1.13l1.63,1.65h-.94a.6.6,0,0,1-.25,0,.54.54,0,0,1-.22-.15l-.78-.79a3.91,3.91,0,0,1-1.18.78,3.71,3.71,0,0,1-1.47.29,2.58,2.58,0,0,1-1.6-.57,2.12,2.12,0,0,1-.53-.69,1.93,1.93,0,0,1-.2-.91,2.18,2.18,0,0,1,.12-.72,2.57,2.57,0,0,1,.89-1.14,3.57,3.57,0,0,1,.68-.4,3.18,3.18,0,0,1-.48-.81,2.14,2.14,0,0,1-.16-.82,1.86,1.86,0,0,1,.14-.75,2,2,0,0,1,.42-.61,2,2,0,0,1,.66-.41A2.64,2.64,0,0,1,133.39,85.83Zm-2.16,5.74a1.52,1.52,0,0,0,.13.62,1.3,1.3,0,0,0,.35.45,1.47,1.47,0,0,0,.48.29,1.77,1.77,0,0,0,.56.09,2.56,2.56,0,0,0,1.09-.22,2.85,2.85,0,0,0,.85-.6l-2.3-2.32a2.47,2.47,0,0,0-.87.74A1.71,1.71,0,0,0,131.23,91.57Z"/><path class="cls-2" d="M157.39,85.92v.86h-3.74v2.73h3.2v.86h-3.2v3.35h-1.06v-7.8Z"/><path class="cls-2" d="M172,89.83a4.34,4.34,0,0,1-.28,1.6,3.67,3.67,0,0,1-.78,1.26,3.41,3.41,0,0,1-1.22.82,4.26,4.26,0,0,1-3.14,0,3.29,3.29,0,0,1-1.21-.82,3.7,3.7,0,0,1-.79-1.26,4.91,4.91,0,0,1,0-3.21,3.84,3.84,0,0,1,.79-1.27,3.55,3.55,0,0,1,1.21-.82,4.26,4.26,0,0,1,3.14,0A3.69,3.69,0,0,1,171,87a3.82,3.82,0,0,1,.78,1.27A4.35,4.35,0,0,1,172,89.83Zm-1.09,0a4,4,0,0,0-.19-1.29,2.64,2.64,0,0,0-.56-1,2.45,2.45,0,0,0-.87-.61,3.2,3.2,0,0,0-2.28,0,2.45,2.45,0,0,0-.87.61,2.64,2.64,0,0,0-.56,1,4.23,4.23,0,0,0,0,2.57,2.81,2.81,0,0,0,.56,1,2.42,2.42,0,0,0,.87.6,3.2,3.2,0,0,0,2.28,0,2.42,2.42,0,0,0,.87-.6,2.81,2.81,0,0,0,.56-1A4,4,0,0,0,171,89.83Zm-3.31-5.18a.59.59,0,0,1,0,.23.85.85,0,0,1-.14.19.7.7,0,0,1-.19.13.68.68,0,0,1-.46,0,.83.83,0,0,1-.18-.13.59.59,0,0,1-.13-.19.55.55,0,0,1,0-.46.53.53,0,0,1,.13-.2.83.83,0,0,1,.18-.13.55.55,0,0,1,.46,0,.7.7,0,0,1,.19.13.72.72,0,0,1,.14.2A.59.59,0,0,1,167.64,84.65Zm2.32,0a.46.46,0,0,1-.05.23.59.59,0,0,1-.13.19.7.7,0,0,1-.19.13.68.68,0,0,1-.46,0,.91.91,0,0,1-.19-.13.8.8,0,0,1-.13-.19.68.68,0,0,1,0-.46.69.69,0,0,1,.13-.2.91.91,0,0,1,.19-.13.55.55,0,0,1,.46,0,.7.7,0,0,1,.19.13.53.53,0,0,1,.13.2A.46.46,0,0,1,170,84.65Z"/><path class="cls-2" d="M180.68,90.47v3.25h-1.05v-7.8h2.21a4.84,4.84,0,0,1,1.28.15,2.58,2.58,0,0,1,.88.43,1.78,1.78,0,0,1,.53.69,2.28,2.28,0,0,1,.16.89,2.2,2.2,0,0,1-.13.78,1.81,1.81,0,0,1-.38.64,2.25,2.25,0,0,1-.6.49,3.24,3.24,0,0,1-.81.3,1.13,1.13,0,0,1,.35.34l2.28,3.09h-.94a.45.45,0,0,1-.42-.22l-2-2.79a.71.71,0,0,0-.2-.19.87.87,0,0,0-.33,0Zm0-.77h1.11a2.78,2.78,0,0,0,.81-.11,1.76,1.76,0,0,0,.59-.32,1.17,1.17,0,0,0,.35-.48,1.61,1.61,0,0,0,.13-.63,1.27,1.27,0,0,0-.46-1,2.22,2.22,0,0,0-1.37-.35h-1.16Z"/><path class="cls-2" d="M196.57,87.14a.32.32,0,0,1-.1.12.24.24,0,0,1-.14,0,.39.39,0,0,1-.22-.1,2.41,2.41,0,0,0-.31-.2,2.38,2.38,0,0,0-.45-.21,2,2,0,0,0-.64-.09,1.77,1.77,0,0,0-.63.1,1.24,1.24,0,0,0-.45.26,1.08,1.08,0,0,0-.28.38,1.24,1.24,0,0,0-.09.48,1,1,0,0,0,.16.54,1.4,1.4,0,0,0,.43.36,2.78,2.78,0,0,0,.6.27l.68.23c.24.08.46.17.69.27a2.65,2.65,0,0,1,.6.38,1.83,1.83,0,0,1,.42.56,1.8,1.8,0,0,1,.16.81,2.78,2.78,0,0,1-.17,1,2.29,2.29,0,0,1-.51.78,2.45,2.45,0,0,1-.82.52,3,3,0,0,1-1.11.19,3.4,3.4,0,0,1-1.38-.27,3.44,3.44,0,0,1-1.07-.75l.31-.5a.36.36,0,0,1,.11-.1.2.2,0,0,1,.13,0,.45.45,0,0,1,.27.12c.09.08.22.17.36.27a2.72,2.72,0,0,0,.54.27,2.13,2.13,0,0,0,.76.12,2,2,0,0,0,.67-.1,1.53,1.53,0,0,0,.5-.29,1.25,1.25,0,0,0,.31-.45,1.54,1.54,0,0,0,.11-.58,1,1,0,0,0-.16-.58,1.4,1.4,0,0,0-.42-.38,3,3,0,0,0-.6-.26l-.68-.22a5.17,5.17,0,0,1-.69-.26,2.1,2.1,0,0,1-.6-.38,1.81,1.81,0,0,1-.42-.58,2.25,2.25,0,0,1-.16-.87,2.19,2.19,0,0,1,.16-.8,2.17,2.17,0,0,1,.47-.69,2.2,2.2,0,0,1,.75-.48,2.78,2.78,0,0,1,1-.18,3.29,3.29,0,0,1,1.2.21,2.8,2.8,0,0,1,.94.6Z"/><path class="cls-2" d="M210.81,93.72H210a.35.35,0,0,1-.23-.07.4.4,0,0,1-.13-.18l-.73-1.88h-3.5l-.73,1.88a.38.38,0,0,1-.13.18.35.35,0,0,1-.23.07h-.81l3.12-7.8h1.07Zm-4.22-9.07a.59.59,0,0,1-.05.23.8.8,0,0,1-.13.19l-.19.13a.67.67,0,0,1-.24,0,.54.54,0,0,1-.22,0,.91.91,0,0,1-.19-.13.8.8,0,0,1-.13-.19.55.55,0,0,1,0-.46.69.69,0,0,1,.13-.2.91.91,0,0,1,.19-.13.54.54,0,0,1,.22,0,.69.69,0,0,1,.24,0l.19.13a.69.69,0,0,1,.13.2A.59.59,0,0,1,206.59,84.65Zm-.89,6.18h2.91l-1.23-3.18a6.45,6.45,0,0,1-.23-.73c0,.15-.08.28-.12.41s-.07.23-.11.33Zm3.21-6.18a.59.59,0,0,1,0,.23.8.8,0,0,1-.13.19l-.19.13a.62.62,0,0,1-.23,0,.59.59,0,0,1-.23,0,1,1,0,0,1-.2-.13.76.76,0,0,1-.12-.19.55.55,0,0,1,0-.46.67.67,0,0,1,.12-.2,1,1,0,0,1,.2-.13.59.59,0,0,1,.23,0,.64.64,0,0,1,.23,0l.19.13a.69.69,0,0,1,.13.2A.59.59,0,0,1,208.91,84.65Z"/><path class="cls-2" d="M219,89.34h.4a1,1,0,0,0,.33,0,.63.63,0,0,0,.23-.18l2.6-2.94a.92.92,0,0,1,.23-.19.6.6,0,0,1,.29-.06H224l-3,3.36a2.07,2.07,0,0,1-.21.21.74.74,0,0,1-.22.14,1.17,1.17,0,0,1,.27.15,1.93,1.93,0,0,1,.24.25l3.1,3.69h-1.09l-.12,0a.31.31,0,0,1-.09-.07l-.09-.09-2.7-3.1a1.14,1.14,0,0,0-.11-.11.36.36,0,0,0-.12-.08.38.38,0,0,0-.16,0l-.22,0H219v3.57h-1.05v-7.8H219Z"/><path class="cls-2" d="M232.45,90.47v3.25h-1v-7.8h2.21a4.71,4.71,0,0,1,1.27.15,2.55,2.55,0,0,1,.89.43,1.67,1.67,0,0,1,.52.69,2.11,2.11,0,0,1,.17.89,2.2,2.2,0,0,1-.13.78,1.81,1.81,0,0,1-.38.64,2.25,2.25,0,0,1-.6.49,3.24,3.24,0,0,1-.81.3,1.13,1.13,0,0,1,.35.34l2.28,3.09h-.94a.48.48,0,0,1-.43-.22l-2-2.79a.71.71,0,0,0-.2-.19.87.87,0,0,0-.33,0Zm0-.77h1.11a2.78,2.78,0,0,0,.81-.11,1.76,1.76,0,0,0,.59-.32,1.17,1.17,0,0,0,.35-.48,1.61,1.61,0,0,0,.12-.63,1.24,1.24,0,0,0-.46-1,2.17,2.17,0,0,0-1.36-.35h-1.16Z"/><path class="cls-2" d="M245.6,93.72h-1.06v-7.8h1.06Z"/><path class="cls-2" d="M254.49,86a.6.6,0,0,1,.15.14L259.16,92a2.45,2.45,0,0,1,0-.27,2.35,2.35,0,0,1,0-.26V85.92h.93v7.8h-.54a.46.46,0,0,1-.21,0,.55.55,0,0,1-.16-.15l-4.52-5.87a2.45,2.45,0,0,1,0,.27,1.85,1.85,0,0,1,0,.23v5.56h-.93v-7.8h.55A.41.41,0,0,1,254.49,86Z"/><path class="cls-2" d="M271.48,93a5.09,5.09,0,0,0,.58,0,3.44,3.44,0,0,0,.5-.09,2.84,2.84,0,0,0,.44-.15,3.89,3.89,0,0,0,.42-.19V90.78h-1.21a.24.24,0,0,1-.17-.06.2.2,0,0,1-.06-.15V90h2.39v3a4.72,4.72,0,0,1-.61.37,4.57,4.57,0,0,1-.68.26,5.82,5.82,0,0,1-.77.16,8.42,8.42,0,0,1-.9,0,4.13,4.13,0,0,1-1.56-.29,3.61,3.61,0,0,1-2-2.08,4.83,4.83,0,0,1,0-3.24,3.44,3.44,0,0,1,.8-1.26,3.57,3.57,0,0,1,1.26-.82,4.53,4.53,0,0,1,1.65-.29,5.76,5.76,0,0,1,.86.07,4.22,4.22,0,0,1,.74.2,3.26,3.26,0,0,1,.62.31,3.2,3.2,0,0,1,.54.41l-.3.48a.27.27,0,0,1-.24.15.41.41,0,0,1-.19-.06l-.3-.19a3.09,3.09,0,0,0-.41-.21,3.24,3.24,0,0,0-.57-.17,3.62,3.62,0,0,0-.79-.07,3.27,3.27,0,0,0-1.19.21,2.63,2.63,0,0,0-.91.62,2.68,2.68,0,0,0-.57,1,3.66,3.66,0,0,0-.21,1.28,4.15,4.15,0,0,0,.21,1.32,2.78,2.78,0,0,0,.6,1,2.44,2.44,0,0,0,.9.61A2.88,2.88,0,0,0,271.48,93Z"/><path class="cls-2" d="M296.6,93.72h-.82a.35.35,0,0,1-.23-.07.49.49,0,0,1-.13-.18l-.73-1.88h-3.5l-.73,1.88a.36.36,0,0,1-.35.25h-.82l3.12-7.8h1.07Zm-5.11-2.89h2.91l-1.22-3.18a6.25,6.25,0,0,1-.24-.73c0,.15-.08.28-.12.41a2.55,2.55,0,0,1-.11.33Z"/><path class="cls-2" d="M303.63,93.72v-7.8h2.49a4.9,4.9,0,0,1,1.23.14,2.38,2.38,0,0,1,.86.41,1.47,1.47,0,0,1,.49.64,2.08,2.08,0,0,1,.16.85,2,2,0,0,1-.08.55,1.89,1.89,0,0,1-.28.5,2,2,0,0,1-.45.41,2.78,2.78,0,0,1-.65.29,2.37,2.37,0,0,1,1.29.62,1.6,1.6,0,0,1,.44,1.17,2.12,2.12,0,0,1-.19.91,2,2,0,0,1-.53.7,2.42,2.42,0,0,1-.86.45,3.78,3.78,0,0,1-1.16.16Zm1.05-4.3h1.4a2.88,2.88,0,0,0,.77-.1,1.7,1.7,0,0,0,.54-.27,1,1,0,0,0,.32-.43,1.33,1.33,0,0,0,.1-.54,1.17,1.17,0,0,0-.41-1,2,2,0,0,0-1.28-.32h-1.44Zm0,.75v2.72h1.69a2.57,2.57,0,0,0,.78-.11,1.42,1.42,0,0,0,.53-.29A1.17,1.17,0,0,0,308,92a1.69,1.69,0,0,0,.1-.56,1.18,1.18,0,0,0-.43-1,2,2,0,0,0-1.29-.35Z"/><line class="cls-3" x1="230.78" x2="230.78" y2="75.67"/><line class="cls-3" x1="153.5" x2="153.5" y2="75.67"/><line class="cls-3" x1="76.22" x2="76.22" y2="75.67"/></svg>